<?xml version="1.0" encoding="utf-8"?>
<svg version="1.1" xmlns:xlink="http://www.w3.org/1999/xlink" width="39px" height="20px" xmlns="http://www.w3.org/2000/svg">
  <defs>
    <mask fill="white" id="clip3">
      <path d="M 0 18  L 0 2  C 0 0.879999999999995  0.672941176470585 0  1.52941176470588 0  L 15.8676470588235 0  L 23.5147058823529 0  L 37.4705882352941 0  C 38.3270588235294 0  39 0.879999999999995  39 2  L 39 18  C 39 19.12  38.3270588235294 20  37.4705882352941 20  L 24.2794117647052 20  L 1.52941176470588 20  C 0.672941176470585 20  0 19.12  0 18  Z " fill-rule="evenodd" />
    </mask>
  </defs>
  <g transform="matrix(1 0 0 1 -489 -486 )">
    <path d="M 0 18  L 0 2  C 0 0.879999999999995  0.672941176470585 0  1.52941176470588 0  L 15.8676470588235 0  L 23.5147058823529 0  L 37.4705882352941 0  C 38.3270588235294 0  39 0.879999999999995  39 2  L 39 18  C 39 19.12  38.3270588235294 20  37.4705882352941 20  L 24.2794117647052 20  L 1.52941176470588 20  C 0.672941176470585 20  0 19.12  0 18  Z " fill-rule="nonzero" fill="#c9c9c9" stroke="none" fill-opacity="0.00784313725490196" transform="matrix(1 0 0 1 489 486 )" />
    <path d="M 0 18  L 0 2  C 0 0.879999999999995  0.672941176470585 0  1.52941176470588 0  L 15.8676470588235 0  L 23.5147058823529 0  L 37.4705882352941 0  C 38.3270588235294 0  39 0.879999999999995  39 2  L 39 18  C 39 19.12  38.3270588235294 20  37.4705882352941 20  L 24.2794117647052 20  L 1.52941176470588 20  C 0.672941176470585 20  0 19.12  0 18  Z " stroke-width="2" stroke="#5e5e5e" fill="none" stroke-opacity="0.298039215686275" transform="matrix(1 0 0 1 489 486 )" mask="url(#clip3)" />
  </g>
</svg>