<?xml version="1.0" encoding="utf-8"?>
<svg version="1.1" xmlns:xlink="http://www.w3.org/1999/xlink" width="39px" height="20px" xmlns="http://www.w3.org/2000/svg">
  <g transform="matrix(1 0 0 1 -489 -527 )">
    <path d="M 490 529  A 1 1 0 0 1 491 528 L 526 528  A 1 1 0 0 1 527 529 L 527 545  A 1 1 0 0 1 526 546 L 491 546  A 1 1 0 0 1 490 545 L 490 529  Z " fill-rule="nonzero" fill="#c9c9c9" stroke="none" fill-opacity="0.00784313725490196" />
    <path d="M 489.5 529  A 1.5 1.5 0 0 1 491 527.5 L 526 527.5  A 1.5 1.5 0 0 1 527.5 529 L 527.5 545  A 1.5 1.5 0 0 1 526 546.5 L 491 546.5  A 1.5 1.5 0 0 1 489.5 545 L 489.5 529  Z " stroke-width="1" stroke="#5e5e5e" fill="none" stroke-opacity="0.298039215686275" />
  </g>
</svg>