<?xml version="1.0" encoding="utf-8"?>
<svg version="1.1" xmlns:xlink="http://www.w3.org/1999/xlink" width="55px" height="30px" xmlns="http://www.w3.org/2000/svg">
  <g transform="matrix(1 0 0 1 -804 -690 )">
    <path d="M 804.5 694  A 3.5 3.5 0 0 1 808 690.5 L 855 690.5  A 3.5 3.5 0 0 1 858.5 694 L 858.5 716  A 3.5 3.5 0 0 1 855 719.5 L 808 719.5  A 3.5 3.5 0 0 1 804.5 716 L 804.5 694  Z " fill-rule="nonzero" fill="#ffffff" stroke="none" />
    <path d="M 804.5 694  A 3.5 3.5 0 0 1 808 690.5 L 855 690.5  A 3.5 3.5 0 0 1 858.5 694 L 858.5 716  A 3.5 3.5 0 0 1 855 719.5 L 808 719.5  A 3.5 3.5 0 0 1 804.5 716 L 804.5 694  Z " stroke-width="1" stroke="#3894df" fill="none" />
  </g>
</svg>