<?xml version="1.0" encoding="utf-8"?>
<svg version="1.1" xmlns:xlink="http://www.w3.org/1999/xlink" width="6px" height="9px" xmlns="http://www.w3.org/2000/svg">
  <g transform="matrix(1 0 0 1 -460 -701 )">
    <path d="M 5.85045924498568 4.2723401655872  L 0.770050308615418 0.174463146156484  C 0.608767478938489 0.0443718071246053  0.366843256473476 0.0443718071246053  0.205560426796546 0.174463146156484  C 0.044277597119617 0.304554485188362  0.044277597119617 0.499691475950272  0.205560426796546 0.62978281498215  L 5.0037244222573 4.5  L 0.205560426796546 8.37021718501785  C 0.044277597119617 8.50030852404973  0.044277597119617 8.69544551481164  0.205560426796546 8.82553685384352  C 0.286201841635011 8.89058252335946  0.40716395286745 8.92310534922444  0.487805367705914 8.92310534922444  C 0.568446782544515 8.92310534922444  0.689408893776954 8.89058252335946  0.770050308615418 8.82553685384352  L 5.85045924498568 4.7276598344128  C 6.01174207466261 4.59756849538093  6.01174207466261 4.40243150461907  5.85045924498568 4.2723401655872  Z " fill-rule="nonzero" fill="#096dd9" stroke="none" transform="matrix(1 0 0 1 460 701 )" />
  </g>
</svg>