<?xml version="1.0" encoding="utf-8"?>
<svg version="1.1" xmlns:xlink="http://www.w3.org/1999/xlink" width="12px" height="14px" xmlns="http://www.w3.org/2000/svg">
  <g transform="matrix(1 0 0 1 -1086 -229 )">
    <path d="M 12 7  C 12 3.13317307692308  9.31442307692311 0  6 0  C 2.68557692307689 0  0 3.13317307692308  0 7  C 0 10.8668269230769  2.68557692307689 14  6 14  C 9.31442307692311 14  12 10.8668269230769  12 7  Z M 6.49615384615379 9.5375  C 6.49615384615379 9.92788461538462  6.22211538461539 10.2307692307692  5.87596153846164 10.2307692307692  C 5.53557692307686 10.2307692307692  5.25865384615389 9.92788461538462  5.25865384615389 9.5375  C 5.25865384615389 9.15048076923077  5.53557692307686 8.84423076923077  5.87596153846164 8.84423076923077  C 6.21923076923082 8.84423076923077  6.49615384615379 9.14711538461539  6.49615384615379 9.5375  Z M 7.84615384615375 5.47211538461538  C 7.84615384615375 6.14182692307692  7.56923076923079 6.60288461538461  7.03557692307686 6.96971153846154  C 6.53365384615375 7.30961538461539  6.36346153846154 7.55865384615385  6.36346153846154 7.98942307692307  L 6.36346153846154 8.25528846153846  L 5.3624999999999 8.25528846153846  L 5.35384615384601 7.96586538461539  C 5.30480769230775 7.27259615384615  5.5125000000001 6.84182692307692  6.03461538461539 6.48509615384615  C 6.52211538461529 6.14519230769231  6.72692307692307 5.92980769230769  6.72692307692307 5.51249999999999  C 6.72692307692307 5.09519230769231  6.38076923076932 4.78894230769231  5.95096153846157 4.78894230769231  C 5.51538461538468 4.78894230769231  5.20096153846157 5.11875  5.17788461538447 5.61682692307692  L 4.15384615384625 5.61682692307692  C 4.17403846153843 4.53317307692308  4.86057692307696 3.76586538461538  6.02019230769235 3.76586538461538  C 7.10192307692307 3.76586538461538  7.84615384615375 4.46586538461539  7.84615384615375 5.47211538461538  Z " fill-rule="nonzero" fill="#ffffff" stroke="none" transform="matrix(1 0 0 1 1086 229 )" />
  </g>
</svg>