<?xml version="1.0" encoding="utf-8"?>
<svg version="1.1" xmlns:xlink="http://www.w3.org/1999/xlink" width="9px" height="14px" xmlns="http://www.w3.org/2000/svg">
  <g transform="matrix(1 0 0 1 -1059 -229 )">
    <path d="M 3.06260472201066 12.1633663366336  C 3.06260472201066 13.2376237623762  3.52871287128713 14  4.3841584158416 14  C 5.23686214775319 14  5.70297029702967 13.2376237623762  5.70297029702967 12.1633663366336  L 3.06260472201066 12.1633663366336  Z M 8.23092155369383 11.5049504950495  C 8.67783701447068 11.5049504950495  8.9355674028942 10.8534653465346  8.6641279512568 10.4029702970297  C 8.24188880426499 9.69950495049504  7.41111957349589 9.2871287128713  7.41111957349589 6.13712871287126  C 7.41111957349589 2.9039603960396  6.28149276466115 1.60445544554455  5.22863670982474 1.29257425742574  C 5.12993145468393 1.26138613861385  5.05864432597103 1.21980198019801  5.05864432597103 1.08811881188119  L 5.05864432597103 0.987623762376248  C 5.05864432597103 0.523267326732674  4.75704493526268 0.131683168316827  4.38964204112718 0.135148514851507  C 4.02223914699168 0.128217821782194  3.72063975628334 0.523267326732674  3.72063975628334 0.987623762376248  L 3.72063975628334 1.08811881188119  C 3.72063975628334 1.21633663366338  3.64935262757044 1.26138613861385  3.55064737242962 1.29257425742574  C 2.4950495049505 1.60792079207922  1.36816450875848 2.9039603960396  1.36816450875848 6.13712871287126  C 1.36816450875848 9.2871287128713  0.537395277989372 9.69603960396041  0.115156130997723 10.4029702970297  C -0.156283320639834 10.8569306930693  0.101447067783686 11.5049504950495  0.551104341203409 11.5049504950495  L 8.23092155369383 11.5049504950495  Z " fill-rule="nonzero" fill="#ffffff" stroke="none" transform="matrix(1 0 0 1 1059 229 )" />
  </g>
</svg>