<?xml version="1.0" encoding="utf-8"?>
<svg version="1.1" xmlns:xlink="http://www.w3.org/1999/xlink" width="7px" height="9px" xmlns="http://www.w3.org/2000/svg">
  <g transform="matrix(1 0 0 1 -1117 -229 )">
    <path d="M 5.31161971830982 1.22142857142858  C 5.23521126760559 1.12178571428571  5.11197183098595 1.12178571428571  5.03556338028172 1.22142857142858  L 0.0566901408450121 7.71428571428571  C 0.0197183098592177 7.7625  0 7.82678571428571  0 7.89428571428572  L 0 8.74607142857143  C 0 8.8875  0.0887323943661613 9  0.194718309859218 9  L 0.842957746478851 9  C 0.894718309859218 9  0.946478873239425 8.97428571428572  0.983450704225379 8.92607142857143  L 5.96478873239441 2.43321428571428  C 6.04119718309864 2.33357142857143  6.04119718309864 2.17285714285714  5.96478873239441 2.07321428571429  L 5.31161971830982 1.22142857142858  Z M 6.90387323943655 0.986785714285718  C 6.90140845070423 0.845357142857145  6.86197183098595 0.71035714285714  6.79295774647885 0.610714285714288  L 6.43802816901405 0.14785714285714  L 6.43309859154924 0.141428571428573  C 6.35669014084501 0.0546428571428549  6.25563380281692 0  6.14964788732402 0  C 6.04119718309864 0  5.94014084507039 0.0546428571428549  5.86373239436616 0.144642857142863  L 5.58521126760559 0.511071428571422  C 5.54823943661979 0.5625  5.54823943661979 0.642857142857137  5.58521126760559 0.691071428571425  L 5.84154929577462 1.02535714285715  L 6.37640845070423 1.72285714285714  C 6.41584507042251 1.77428571428572  6.47746478873232 1.77428571428572  6.51690140845076 1.72285714285714  L 6.79542253521133 1.35964285714286  C 6.86443661971828 1.26000000000001  6.90387323943655 1.13142857142857  6.90387323943655 0.986785714285718  Z " fill-rule="nonzero" fill="#ffffff" stroke="none" transform="matrix(1 0 0 1 1117 229 )" />
  </g>
</svg>