<?xml version="1.0" encoding="utf-8"?>
<svg version="1.1" xmlns:xlink="http://www.w3.org/1999/xlink" width="9px" height="11px" xmlns="http://www.w3.org/2000/svg">
  <g transform="matrix(1 0 0 1 -1113 -231 )">
    <path d="M 5.23723404255314 6.99195402298851  L 5.21808510638292 7.01724137931035  C 5.14627659574461 7.11206896551724  5.04813829787234 7.16580459770115  4.94760638297871 7.16580459770115  L 3.95664893617022 7.16580459770115  C 3.74601063829785 7.16580459770115  3.57367021276591 6.9382183908046  3.57367021276591 6.66005747126437  L 3.57367021276591 5.34827586206897  C 3.57367021276591 5.21551724137931  3.61436170212769 5.08591954022988  3.686170212766 4.99109195402299  L 3.70531914893622 4.96580459770115  L 7.23829787234049 0.300287356321842  C 7.29813829787234 0.22126436781609  7.25505319148935 0.0853448275862002  7.17127659574474 0.0853448275862002  L 1.40505319148932 0.0853448275862002  C 0.629521276595754 0.0853448275862133  0 0.916666666666667  0 1.94080459770115  L 0 9.02126436781608  C 0 10.0454022988506  0.629521276595754 10.876724137931  1.40505319148932 10.876724137931  L 7.53271276595748 10.876724137931  C 8.30824468085105 10.876724137931  8.9377659574468 10.0454022988506  8.9377659574468 9.02126436781608  L 8.9377659574468 2.41494252873563  C 8.9377659574468 2.30114942528736  8.83484042553197 2.24741379310345  8.77499999999997 2.32643678160919  L 5.23723404255314 6.99195402298851  Z " fill-rule="nonzero" fill="#ffffff" stroke="none" transform="matrix(1 0 0 1 1113 231 )" />
  </g>
</svg>