<?xml version="1.0" encoding="utf-8"?>
<svg version="1.1" xmlns:xlink="http://www.w3.org/1999/xlink" width="10px" height="12px" xmlns="http://www.w3.org/2000/svg">
  <g transform="matrix(1 0 0 1 -203 -302 )">
    <path d="M 10 6  C 10 2.68557692307692  7.76201923076924 0  5 0  C 2.23798076923077 0  0 2.68557692307692  0 6  C 0 9.31442307692308  2.23798076923077 12  5 12  C 7.76201923076924 12  10 9.31442307692308  10 6  Z M 0.75240384615385 6.99519230769231  C 0.699519230769238 6.67211538461537  0.673076923076924 6.33750000000001  0.673076923076924 6  C 0.673076923076924 4.61250000000001  1.12259615384615 3.30865384615384  1.93990384615385 2.32788461538462  C 2.75721153846154 1.34711538461538  3.84375 0.807692307692309  5 0.807692307692309  C 6.15625 0.807692307692309  7.24278846153846 1.34711538461538  8.06009615384616 2.32788461538462  C 8.83413461538461 3.25673076923077  9.27884615384615 4.47692307692307  9.32451923076924 5.78076923076923  C 9.11298076923076 5.48365384615384  8.74278846153845 5.08846153846153  8.27163461538461 5.08846153846153  C 7.61057692307693 5.08846153846153  7.26923076923077 5.82980769230771  7.04567307692308 6.3201923076923  C 7.01201923076923 6.39230769230771  6.98076923076924 6.46153846153845  6.95192307692308 6.5221153846154  C 6.67788461538462 7.07596153846155  6.29567307692307 7.38749999999999  5.93028846153845 7.35576923076923  C 5.60817307692309 7.32980769230771  5.33413461538462 7.0326923076923  5.15625 6.52500000000001  C 4.93509615384615 5.88749999999999  4.45673076923078 5.20384615384616  3.88461538461539 5.10576923076923  C 3.61298076923077 5.05961538461539  3.20913461538462 5.12884615384616  2.81009615384615 5.72307692307691  C 2.73317307692308 5.83846153846153  2.64423076923077 5.99423076923078  2.54326923076923 6.17307692307693  C 2.29326923076923 6.62019230769231  1.91346153846154 7.29230769230768  1.62740384615385 7.34999999999999  C 1.21153846153846 7.43076923076923  0.884615384615383 7.13365384615386  0.75240384615385 6.99519230769231  Z " fill-rule="nonzero" fill="#606266" stroke="none" transform="matrix(1 0 0 1 203 302 )" />
  </g>
</svg>