<?xml version="1.0" encoding="utf-8"?>
<svg version="1.1" xmlns:xlink="http://www.w3.org/1999/xlink" width="10px" height="12px" xmlns="http://www.w3.org/2000/svg">
  <g transform="matrix(1 0 0 1 -203 -438 )">
    <path d="M 0.0457317073170722 10.8348968105066  C 0.0457317073170722 11.3797197467167  0.386337652439021 11.8198874296435  0.807926829268289 11.8198874296435  L 9.19207317073171 11.8198874296435  C 9.61366234756098 11.8198874296435  9.95426829268293 11.3797197467167  9.95426829268293 10.8348968105066  L 9.95426829268293 4.92495309568481  L 0.0457317073170722 4.92495309568481  L 0.0457317073170722 10.8348968105066  Z M 9.95426829268293 2.95497185741088  C 9.95426829268293 2.41014892120075  9.61366234756098 1.96998123827393  9.19207317073171 1.96998123827393  L 9.0015243902439 1.96998123827393  L 9.0015243902439 1.72373358348969  C 9.0015243902439 1.58829737335835  8.91577743902439 1.47748592870544  8.8109756097561 1.47748592870544  L 8.04878048780488 1.47748592870544  C 7.94397865853659 1.47748592870544  7.85823170731707 1.58829737335835  7.85823170731707 1.72373358348969  L 7.85823170731707 1.96998123827393  L 7.19131097560975 1.96998123827393  L 7.19131097560975 0.984990619136957  C 7.19131097560975 0.443245778611636  6.84832317073171 0  6.42911585365854 0  L 3.57088414634146 0  C 3.15167682926829 0  2.80868902439025 0.443245778611636  2.80868902439025 0.984990619136957  L 2.80868902439025 1.96998123827393  L 2.14176829268293 1.96998123827393  L 2.14176829268293 1.72373358348969  C 2.14176829268293 1.58829737335835  2.05602134146341 1.47748592870544  1.95121951219512 1.47748592870544  L 1.18902439024391 1.47748592870544  C 1.08422256097561 1.47748592870544  0.998475609756093 1.58829737335835  0.998475609756093 1.72373358348969  L 0.998475609756093 1.96998123827393  L 0.807926829268289 1.96998123827393  C 0.386337652439021 1.96998123827393  0.0457317073170722 2.41014892120075  0.0457317073170722 2.95497185741088  L 0.0457317073170722 4.18621013133208  L 9.95426829268293 4.18621013133208  L 9.95426829268293 2.95497185741088  Z M 6.52439024390244 1.10811444652908  L 6.52439024390244 1.96998123827393  L 3.47560975609756 1.96998123827393  L 3.47560975609756 1.10811444652908  C 3.47560975609756 0.972678236397743  3.56135670731707 0.861866791744844  3.66615853658536 0.861866791744844  L 6.33384146341464 0.861866791744844  C 6.43864329268293 0.861866791744844  6.52439024390244 0.972678236397743  6.52439024390244 1.10811444652908  Z " fill-rule="nonzero" fill="#606266" stroke="none" transform="matrix(1 0 0 1 203 438 )" />
  </g>
</svg>