<?xml version="1.0" encoding="utf-8"?>
<svg version="1.1" xmlns:xlink="http://www.w3.org/1999/xlink" width="13px" height="11px" xmlns="http://www.w3.org/2000/svg">
  <g transform="matrix(1 0 0 1 -203 -575 )">
    <path d="M 3.17036576704546 7.017333984375  C 3.11554509943183 6.936767578125  3.15305397727273 6.44238281249999  3.15305397727273 6.44238281249999  C 3.15305397727273 6.44238281249999  3.84264026988636 6.4130859375  4.11674360795454 6.10180664062498  C 3.66952237215909 5.2412109375  3.91188742897727 4.23779296875  3.81955788352273 3.30029296874999  C 3.72722833806817 2.36645507812501  3.30886008522727 1.80615234375002  2.47212357954546 1.80615234375002  L 2.46058238636364 1.80615234375002  C 1.65269886363636 1.80615234375002  1.21701882102273 2.36279296874999  1.12468927556818 3.30029296874999  C 1.03235973011364 4.234130859375  1.28915127840909 5.35107421874999  0.830388849431823 6.10180664062498  C 1.1044921875 6.41674804687498  1.79696377840909 6.40576171875  1.79696377840909 6.40576171875  C 1.79696377840909 6.40576171875  1.82581676136364 6.93310546875  1.76811079545454 7.02099609374998  C 1.71040482954546 7.10888671874998  1.54017223011364 7.19311523437498  1.421875 7.22241210937498  C 1.16796875 7.2919921875  0.899636008522731 7.38720703124998  0.674582741477269 7.48608398437499  C 0.449529474431823 7.58496093749998  0.022505326704541 8.11596679687498  0.022505326704541 8.84838867187496  L 2.33939985795454 8.84838867187496  C 2.40287642045454 8.55541992187498  2.83855646306817 8.03173828124998  3.2626953125 7.75708007812498  C 3.52237215909091 7.58862304687498  3.77916370738636 7.59960937499999  3.97536399147727 7.56665039062499  C 3.97536399147727 7.56665039062499  4.08500532670454 7.34692382812498  3.72434303977273 7.26269531249998  C 3.72434303977273 7.26269531249998  3.22807173295454 7.10522460937498  3.17036576704546 7.017333984375  Z M 9.82963423295454 7.017333984375  C 9.88445490056817 6.936767578125  9.84694602272727 6.44238281249999  9.84694602272727 6.44238281249999  C 9.84694602272727 6.44238281249999  9.15735973011363 6.4130859375  8.88325639204546 6.10180664062498  C 9.3304776278409 5.2412109375  9.08811257102273 4.23779296875  9.18044211647727 3.30029296874999  C 9.27277166193181 2.36645507812501  9.69113991477273 1.80615234375002  10.5278764204545 1.80615234375002  L 10.5394176136364 1.80615234375002  C 11.3473011363636 1.80615234375002  11.7829811789773 2.36279296874999  11.8753107244318 3.30029296874999  C 11.9676402698864 4.234130859375  11.7108487215909 5.35107421874999  12.1696111505682 6.10180664062498  C 11.8955078125 6.41674804687498  11.2030362215909 6.40576171875  11.2030362215909 6.40576171875  C 11.2030362215909 6.40576171875  11.1741832386364 6.93310546875  11.2318892045455 7.02099609374998  C 11.2895951704545 7.10888671874998  11.4598277698864 7.19311523437498  11.578125 7.22241210937498  C 11.83203125 7.2919921875  12.1003639914773 7.38720703124998  12.3254172585227 7.48608398437499  C 12.5504705255682 7.58496093749998  12.9774946732955 8.11596679687498  12.9774946732955 8.84838867187496  L 10.6606001420455 8.84838867187496  C 10.5971235795455 8.55541992187498  10.1614435369318 8.03173828124998  9.7373046875 7.75708007812498  C 9.4776278409091 7.58862304687498  9.22083629261363 7.59960937499999  9.02463600852273 7.56665039062499  C 9.02463600852273 7.56665039062499  8.91499467329546 7.34692382812498  9.27565696022727 7.26269531249998  C 9.27565696022727 7.26269531249998  9.77192826704546 7.10522460937498  9.82963423295454 7.017333984375  Z M 10.5047940340909 10.6904296875  C 10.5076793323864 9.03881835937498  9.5093661221591 8.37231445312499  9.18621271306819 8.22583007812498  C 8.86305930397727 8.07934570312498  8.3350497159091 8.07202148437498  8.10134055397727 7.95849609374998  C 7.93976384943181 7.87792968749998  7.68297230113636 7.79003906249998  7.59929865056819 7.661865234375  C 7.515625 7.53369140625  7.515625 6.61816406249998  7.515625 6.61816406249998  C 7.515625 6.61816406249998  7.71759588068181 6.37646484374998  7.80126953125 6.10546874999998  C 7.88494318181819 5.83813476562499  7.93976384943181 5.09838867187498  7.93976384943181 5.09838867187498  C 7.93976384943181 5.09838867187498  8.13019353693183 5.200927734375  8.20521129261363 4.717529296875  C 8.26868785511363 4.30004882812501  8.38987038352273 4.08032226562498  8.35813210227273 3.77270507812499  C 8.32350852272727 3.465087890625  8.19078480113637 3.53833007812496  8.19078480113637 3.53833007812496  C 8.19078480113637 3.53833007812496  8.35813210227273 3.22705078125  8.35813210227273 2.16870117187496  C 8.35813210227273 1.07739257812501  7.70893998579546 0.00439453124999763  6.4942294034091 0.00439453124999763  C 5.28240411931817 0.00439453124999763  4.62744140625 1.08105468750002  4.62744140625 2.16870117187496  C 4.62744140625 3.22705078125  4.79190340909091 3.53833007812496  4.79190340909091 3.53833007812496  C 4.79190340909091 3.53833007812496  4.65629438920454 3.465087890625  4.62455610795454 3.77270507812499  C 4.58993252840909 4.08032226562498  4.71111505681817 4.30004882812501  4.77747691761364 4.717529296875  C 4.85249467329546 5.20458984375  5.04292436079546 5.09838867187498  5.04292436079546 5.09838867187498  C 5.04292436079546 5.09838867187498  5.0977450284091 5.83447265624999  5.18141867897727 6.10546874999998  C 5.26509232954546 6.37646484374998  5.46706321022727 6.61816406249998  5.46706321022727 6.61816406249998  C 5.46706321022727 6.61816406249998  5.46706321022727 7.53369140625  5.3833895596591 7.661865234375  C 5.2997159090909 7.79003906249998  5.04292436079546 7.87792968749998  4.88134765625 7.95483398437498  C 4.65052379261364 8.06835937499998  4.12251420454546 8.08300781249996  3.79647549715909 8.22949218749998  C 3.47332208806817 8.37597656249999  2.47500887784091 9.04248046874998  2.47500887784091 10.6904296875  L 10.5047940340909 10.6904296875  Z " fill-rule="nonzero" fill="#606266" stroke="none" transform="matrix(1 0 0 1 203 575 )" />
  </g>
</svg>