<?xml version="1.0" encoding="utf-8"?>
<svg version="1.1" xmlns:xlink="http://www.w3.org/1999/xlink" width="10px" height="10px" xmlns="http://www.w3.org/2000/svg">
  <g transform="matrix(1 0 0 1 -590 -362 )">
    <path d="M 595 362  C 597.8 362  600 364.2  600 367  C 600 369.8  597.8 372  595 372  C 592.2 372  590 369.8  590 367  C 590 364.2  592.2 362  595 362  Z " fill-rule="nonzero" fill="#ffffff" stroke="none" />
    <path d="M 595 362.5  C 597.52 362.5  599.5 364.48  599.5 367  C 599.5 369.52  597.52 371.5  595 371.5  C 592.48 371.5  590.5 369.52  590.5 367  C 590.5 364.48  592.48 362.5  595 362.5  Z " stroke-width="1" stroke="#409eff" fill="none" />
  </g>
</svg>